<svg xmlns="http://www.w3.org/2000/svg" width="40.624" height="31.925" viewBox="1804.376 58.075 40.624 31.925"><path d="m1844.912 65.272-4.725 14.881c-.353 1.06-1.28 1.766-2.385 1.766h-18.236c-1.06 0-2.076-.662-2.429-1.633l-6.977-18.679h-4.018a1.771 1.771 0 0 1-1.766-1.766c0-.971.795-1.766 1.766-1.766h5.255c.75 0 1.413.486 1.678 1.192l7.197 19.12h16.78l3.753-11.922h-20.798a1.771 1.771 0 0 1-1.766-1.767c0-.971.795-1.766 1.766-1.766h23.227c.574 0 1.104.31 1.413.75.353.442.441 1.06.265 1.59Zm-24.463 18.988c-.75 0-1.501.309-2.031.839-.53.53-.84 1.28-.84 2.03 0 .751.31 1.502.84 2.032s1.28.839 2.031.839c.75 0 1.501-.31 2.031-.839.53-.53.84-1.28.84-2.031 0-.75-.31-1.502-.84-2.031a2.912 2.912 0 0 0-2.031-.84Zm15.852 0c-.75 0-1.501.309-2.031.839-.53.53-.839 1.28-.839 2.03 0 .751.31 1.502.839 2.032.53.53 1.28.839 2.031.839.75 0 1.501-.31 2.031-.839.53-.53.84-1.28.84-2.031 0-.75-.31-1.502-.84-2.031a2.912 2.912 0 0 0-2.03-.84Z" fill="#fff" fill-rule="evenodd" data-name="cart"/></svg>