<svg xmlns="http://www.w3.org/2000/svg" width="68.869" height="75.808" viewBox="142.315 30 68.869 75.808"><g data-name="LOGO"><path d="M181.122 71.381c-.12-1.078-.24-2.036-.36-3.114 0-.479-.12-.958-.12-1.437 0-.24 0-.36-.12-.599-.239-1.796-.598-3.473-.957-5.27l-.36-1.437v.12c-.838 2.515-1.437 5.03-1.916 7.545-1.198 5.75-1.916 11.618-3.114 17.367-.599 2.875-1.198 5.87-2.276 8.744-.958 2.515-2.275 4.91-5.03 5.869-5.39 1.557-7.785-4.791-8.983-8.504-1.437-4.432-2.396-8.983-3.474-13.534-.24-.839-.479-1.677-.598-2.635-1.318 5.988-1.917 12.097-4.312 17.846v.12l20.361 11.737c2.156 1.198 5.03 1.797 7.785 1.557.12-.12.12-.36.24-.479.12-.12.12-.24.24-.479.239-.719.598-1.557.838-2.276a43.036 43.036 0 0 0 1.437-5.629c.24-1.078.36-2.036.48-3.114 0-.24 0-.48.119-.719.12-.599.12-1.078.12-1.677.24-2.155.359-4.431.479-6.707 0-4.312-.12-8.863-.48-13.295Z" fill="#ff4e46" fill-rule="evenodd" data-name="Path 1"/><path d="M190.224 85.155c-.24 5.27-.598 10.78-1.796 16.05l16.05-9.342c3.712-2.156 6.707-7.426 6.707-11.738v-1.318l-26.35-28.266c1.676 2.276 2.515 5.39 3.233 8.145 1.917 8.623 2.516 17.726 2.156 26.47Z" fill="#d33f39" fill-rule="evenodd" data-name="Path 2"/><path d="m204.477 43.954-21.2-12.337c-3.712-2.156-9.82-2.156-13.534 0l-20.84 12.337c-3.713 2.155-6.588 7.425-6.588 11.737v24.554c0 1.317.12 2.754.6 4.192.838-3.713 1.436-7.426 2.155-11.02.599-2.754 1.078-5.629 2.156-8.264.958-2.395 2.276-5.15 5.03-5.749 2.875-.599 5.27.839 6.708 3.354l8.504 8.983c.718-4.432 1.557-8.863 2.874-13.175.958-3.114 2.156-7.426 4.791-9.582 3.473-2.755 7.186-1.916 9.821 1.437l26.23 28.386V55.691c-.12-4.312-2.994-9.582-6.707-11.737Z" fill="#ff4e46" fill-rule="evenodd" data-name="Path 3"/><path d="M162.916 74.735c.719 3.114 1.438 6.348 2.276 9.462.599-2.515.958-4.91 1.437-7.426.24-1.677.599-3.353.839-5.03l-8.504-8.983c2.036 3.593 2.994 8.025 3.952 11.977Z" fill="#d33f39" fill-rule="evenodd" data-name="Path 4"/></g></svg>